<svg xmlns="http://www.w3.org/2000/svg" xmlns:xlink="http://www.w3.org/1999/xlink" width="500" zoomAndPan="magnify" viewBox="0 0 375 374.999991" height="500" preserveAspectRatio="xMidYMid meet" version="1.0"><defs><g/><clipPath id="c5d229e53c"><path d="M 53.984375 64 L 261.734375 64 L 261.734375 311.347656 L 53.984375 311.347656 Z M 53.984375 64 " clip-rule="nonzero"/></clipPath></defs><rect x="-37.5" width="450" fill="#ffffff" y="-37.499999" height="449.999989" fill-opacity="1"/><rect x="-37.5" width="450" fill="#ffffff" y="-37.499999" height="449.999989" fill-opacity="1"/><g clip-path="url(#c5d229e53c)"><path fill="#ecc57c" d="M 174 212.851562 L 174 221.710938 L 196.882812 221.710938 L 196.882812 276.71875 C 184.390625 294.304688 166.421875 305.277344 146.488281 305.277344 C 108.589844 305.277344 77.707031 265.324219 77.707031 216.085938 C 77.707031 175.710938 98.339844 141.664062 126.695312 130.691406 C 126.695312 165.582031 126.695312 200.46875 126.695312 235.359375 L 149.578125 235.359375 C 149.578125 204.691406 149.578125 174.160156 149.578125 143.492188 L 149.578125 127.035156 C 153.226562 127.175781 156.734375 127.878906 160.246094 128.722656 C 184.671875 135.191406 201.515625 157 209.375 180.210938 C 238.851562 177.398438 261.734375 152.496094 261.734375 122.25 C 261.734375 87.359375 234.363281 64.007812 200.8125 64.007812 L 126.695312 64.007812 L 126.695312 123.09375 C 85.144531 132.519531 53.984375 170.503906 53.984375 216.085938 C 53.984375 268.558594 95.394531 311.1875 146.488281 311.1875 C 166.140625 311.1875 184.25 304.855469 199.269531 294.164062 L 219.621094 294.164062 L 219.621094 212.710938 C 204.320312 212.851562 189.160156 212.851562 174 212.851562 Z M 201.09375 72.871094 C 223.832031 72.871094 242.222656 94.957031 242.222656 122.25 C 242.222656 139.554688 234.78125 154.746094 223.554688 163.609375 C 209.375 141.523438 186.496094 125.90625 159.824219 121.96875 C 156.457031 121.40625 152.945312 121.125 149.4375 120.984375 L 149.4375 72.871094 C 149.578125 72.871094 201.09375 72.871094 201.09375 72.871094 Z M 201.09375 72.871094 " fill-opacity="1" fill-rule="nonzero"/></g><g fill="#000000" fill-opacity="1"><g transform="translate(146.750048, 261.015597)"><g><path d="M 25.296875 -19.09375 L 21.921875 0 L 17.28125 0 L 19.3125 -11.453125 L 13 0 L 9.25 0 L 6.96875 -11.5 L 4.953125 0 L 0.296875 0 L 3.671875 -19.09375 L 9.171875 -19.09375 L 12.21875 -5.875 L 19.828125 -19.09375 Z M 25.296875 -19.09375 "/></g></g></g><g fill="#000000" fill-opacity="1"><g transform="translate(171.718914, 261.015597)"><g><path d="M 12.78125 -3.375 L 5.65625 -3.375 L 3.921875 0 L -0.953125 0 L 9.328125 -19.09375 L 14.71875 -19.09375 L 18.25 0 L 13.328125 0 Z M 12.234375 -6.90625 L 11.125 -13.984375 L 7.484375 -6.90625 Z M 12.234375 -6.90625 "/></g></g></g><g fill="#000000" fill-opacity="1"><g transform="translate(191.764727, 261.015597)"><g><path d="M 17.375 0 L 12.734375 0 L 7.046875 -11.78125 L 4.953125 0 L 0.296875 0 L 3.671875 -19.09375 L 8.328125 -19.09375 L 14.015625 -7.265625 L 16.109375 -19.09375 L 20.75 -19.09375 Z M 17.375 0 "/></g></g></g><g fill="#000000" fill-opacity="1"><g transform="translate(212.218534, 261.015597)"><g><path d="M 12.78125 -3.375 L 5.65625 -3.375 L 3.921875 0 L -0.953125 0 L 9.328125 -19.09375 L 14.71875 -19.09375 L 18.25 0 L 13.328125 0 Z M 12.234375 -6.90625 L 11.125 -13.984375 L 7.484375 -6.90625 Z M 12.234375 -6.90625 "/></g></g></g><g fill="#000000" fill-opacity="1"><g transform="translate(232.264347, 261.015597)"><g><path d="M 1.21875 -9.578125 C 1.550781 -11.460938 2.253906 -13.144531 3.328125 -14.625 C 4.410156 -16.101562 5.757812 -17.253906 7.375 -18.078125 C 8.988281 -18.898438 10.738281 -19.3125 12.625 -19.3125 C 14.90625 -19.3125 16.738281 -18.757812 18.125 -17.65625 C 19.519531 -16.550781 20.28125 -15.019531 20.40625 -13.0625 L 15.28125 -13.0625 C 15.050781 -13.695312 14.640625 -14.179688 14.046875 -14.515625 C 13.460938 -14.847656 12.742188 -15.015625 11.890625 -15.015625 C 10.378906 -15.015625 9.082031 -14.519531 8 -13.53125 C 6.925781 -12.539062 6.242188 -11.222656 5.953125 -9.578125 C 5.867188 -9.035156 5.828125 -8.5625 5.828125 -8.15625 C 5.828125 -6.8125 6.210938 -5.773438 6.984375 -5.046875 C 7.765625 -4.328125 8.875 -3.96875 10.3125 -3.96875 C 11.46875 -3.96875 12.488281 -4.257812 13.375 -4.84375 C 14.269531 -5.4375 14.988281 -6.28125 15.53125 -7.375 L 9.65625 -7.375 L 10.234375 -10.765625 L 20.34375 -10.765625 L 19.59375 -6.453125 C 19.039062 -5.285156 18.257812 -4.203125 17.25 -3.203125 C 16.25 -2.210938 15.054688 -1.40625 13.671875 -0.78125 C 12.296875 -0.164062 10.8125 0.140625 9.21875 0.140625 C 7.570312 0.140625 6.125 -0.179688 4.875 -0.828125 C 3.632812 -1.472656 2.679688 -2.375 2.015625 -3.53125 C 1.359375 -4.695312 1.03125 -6.050781 1.03125 -7.59375 C 1.03125 -8.113281 1.09375 -8.773438 1.21875 -9.578125 Z M 1.21875 -9.578125 "/></g></g></g><g fill="#000000" fill-opacity="1"><g transform="translate(252.990145, 261.015597)"><g><path d="M 7.671875 -15.421875 L 6.984375 -11.453125 L 13.21875 -11.453125 L 12.59375 -7.9375 L 6.359375 -7.9375 L 5.609375 -3.671875 L 12.65625 -3.671875 L 12 0 L 0.296875 0 L 3.671875 -19.09375 L 15.375 -19.09375 L 14.71875 -15.421875 Z M 7.671875 -15.421875 "/></g></g></g><g fill="#000000" fill-opacity="1"><g transform="translate(267.704912, 261.015597)"><g><path d="M 25.296875 -19.09375 L 21.921875 0 L 17.28125 0 L 19.3125 -11.453125 L 13 0 L 9.25 0 L 6.96875 -11.5 L 4.953125 0 L 0.296875 0 L 3.671875 -19.09375 L 9.171875 -19.09375 L 12.21875 -5.875 L 19.828125 -19.09375 Z M 25.296875 -19.09375 "/></g></g></g><g fill="#000000" fill-opacity="1"><g transform="translate(292.673778, 261.015597)"><g><path d="M 7.671875 -15.421875 L 6.984375 -11.453125 L 13.21875 -11.453125 L 12.59375 -7.9375 L 6.359375 -7.9375 L 5.609375 -3.671875 L 12.65625 -3.671875 L 12 0 L 0.296875 0 L 3.671875 -19.09375 L 15.375 -19.09375 L 14.71875 -15.421875 Z M 7.671875 -15.421875 "/></g></g></g><g fill="#000000" fill-opacity="1"><g transform="translate(307.388545, 261.015597)"><g><path d="M 17.375 0 L 12.734375 0 L 7.046875 -11.78125 L 4.953125 0 L 0.296875 0 L 3.671875 -19.09375 L 8.328125 -19.09375 L 14.015625 -7.265625 L 16.109375 -19.09375 L 20.75 -19.09375 Z M 17.375 0 "/></g></g></g><g fill="#000000" fill-opacity="1"><g transform="translate(327.842351, 261.015597)"><g><path d="M 17.40625 -19.09375 L 16.78125 -15.421875 L 11.703125 -15.421875 L 8.984375 0 L 4.328125 0 L 7.046875 -15.421875 L 1.984375 -15.421875 L 2.640625 -19.09375 Z M 17.40625 -19.09375 "/></g></g></g></svg>